<svg xmlns="http://www.w3.org/2000/svg" viewBox="0 0 400 540" width="400" height="540">
  <!--
    ずんちゃ丸 ベクター正本（参照シート準拠のフラット2D・紙切り感）
    パレット: #FFFFFF / #FFD9D9 / #8BCB59 / #6FB234 / #4EBC3A / 輪郭 #3d6b1e
    頭身: 約2.2頭身（頭部が全高の6割）
    表情グループ: #expr-normal / #expr-sneaky / #expr-happy を CSS で切り替える
  -->
  <g id="zuncha" stroke-linecap="round" stroke-linejoin="round">

    <!-- 足 -->
    <ellipse cx="168" cy="508" rx="26" ry="15" fill="#FFFFFF" stroke="#3d6b1e" stroke-width="5"/>
    <ellipse cx="232" cy="508" rx="26" ry="15" fill="#FFFFFF" stroke="#3d6b1e" stroke-width="5"/>

    <!-- 体（黄緑の和装） -->
    <path d="M 148 372 L 252 372 Q 270 372 274 402 L 282 462 Q 284 486 258 490 L 142 490 Q 116 486 118 462 L 126 402 Q 130 372 148 372 Z"
          fill="#8BCB59" stroke="#3d6b1e" stroke-width="6"/>
    <!-- 衿合わせ -->
    <path d="M 200 372 L 178 400 M 200 372 L 222 400" fill="none" stroke="#FFFFFF" stroke-width="7"/>
    <!-- 前掛け（濃緑） -->
    <path d="M 150 414 L 250 414 Q 262 414 263 430 L 266 470 Q 266 486 248 487 L 152 487 Q 134 486 134 470 L 137 430 Q 138 414 150 414 Z"
          fill="#6FB234" stroke="#3d6b1e" stroke-width="5"/>
    <!-- 前掛けの紐結び -->
    <path d="M 188 414 Q 200 406 212 414 Q 206 420 200 418 Q 194 420 188 414 Z" fill="#4EBC3A" stroke="#3d6b1e" stroke-width="4"/>
    <!-- 前掛けの枝豆紋 -->
    <g stroke="#e9f5dc" stroke-width="5" fill="none">
      <path d="M 184 448 Q 186 438 196 437 Q 191 445 196 452 Q 186 452 184 448 Z"/>
      <path d="M 204 437 Q 214 438 216 448 Q 214 452 204 452 Q 209 445 204 437 Z"/>
    </g>

    <!-- 腕（短い前足） -->
    <ellipse cx="122" cy="412" rx="24" ry="17" fill="#FFFFFF" stroke="#3d6b1e" stroke-width="5" transform="rotate(-18 122 412)"/>
    <ellipse cx="278" cy="412" rx="24" ry="17" fill="#FFFFFF" stroke="#3d6b1e" stroke-width="5" transform="rotate(18 278 412)"/>

    <!-- フード（枝豆の黄緑） -->
    <ellipse cx="200" cy="222" rx="168" ry="158" fill="#8BCB59" stroke="#3d6b1e" stroke-width="7"/>

    <!-- 葉っぱ（感情パーツ。アニメ時は #leaf-l / #leaf-r を回転させる。フードより前面） -->
    <g id="leaf-l" transform="rotate(-10 186 72)">
      <path d="M 186 72 Q 172 20 128 10 Q 118 52 152 74 Q 172 82 186 72 Z" fill="#4EBC3A" stroke="#3d6b1e" stroke-width="5"/>
      <path d="M 178 66 Q 160 44 140 26" fill="none" stroke="#3d6b1e" stroke-width="3"/>
    </g>
    <g id="leaf-r" transform="rotate(10 214 72)">
      <path d="M 214 72 Q 228 20 272 10 Q 282 52 248 74 Q 228 82 214 72 Z" fill="#4EBC3A" stroke="#3d6b1e" stroke-width="5"/>
      <path d="M 222 66 Q 240 44 260 26" fill="none" stroke="#3d6b1e" stroke-width="3"/>
    </g>

    <!-- 顔（白・フードの中） -->
    <ellipse cx="200" cy="248" rx="122" ry="112" fill="#FFFFFF" stroke="none"/>

    <!-- 額の三粒のずんだ -->
    <g fill="#6FB234" stroke="#3d6b1e" stroke-width="4">
      <ellipse cx="152" cy="150" rx="17" ry="13" transform="rotate(-14 152 150)"/>
      <ellipse cx="200" cy="140" rx="18" ry="14"/>
      <ellipse cx="248" cy="150" rx="17" ry="13" transform="rotate(14 248 150)"/>
    </g>

    <!-- ほっぺ（共通） -->
    <ellipse cx="118" cy="288" rx="20" ry="13" fill="#FFD9D9"/>
    <ellipse cx="282" cy="288" rx="20" ry="13" fill="#FFD9D9"/>

    <!-- ===== 表情: 通常の微笑み ===== -->
    <g id="expr-normal">
      <circle cx="152" cy="248" r="23" fill="#231f20"/>
      <circle cx="248" cy="248" r="23" fill="#231f20"/>
      <circle cx="145" cy="240" r="8" fill="#FFFFFF"/>
      <circle cx="241" cy="240" r="8" fill="#FFFFFF"/>
      <path d="M 186 298 Q 200 310 214 298" fill="none" stroke="#3d6b1e" stroke-width="6"/>
    </g>

    <!-- ===== 表情: いたずら顔（細め目・にんまり） ===== -->
    <g id="expr-sneaky" style="display:none">
      <path d="M 130 244 Q 152 232 174 244" fill="none" stroke="#231f20" stroke-width="8"/>
      <path d="M 226 244 Q 248 232 270 244" fill="none" stroke="#231f20" stroke-width="8"/>
      <path d="M 182 294 Q 200 306 220 292 Q 212 300 200 300 Q 190 300 182 294 Z" fill="#231f20"/>
    </g>

    <!-- ===== 表情: 照れ笑い（にこにこ目・頬ぷく） ===== -->
    <g id="expr-happy" style="display:none">
      <path d="M 132 250 Q 152 234 172 250" fill="none" stroke="#231f20" stroke-width="8"/>
      <path d="M 228 250 Q 248 234 268 250" fill="none" stroke="#231f20" stroke-width="8"/>
      <path d="M 188 296 Q 200 306 212 296" fill="none" stroke="#3d6b1e" stroke-width="6"/>
      <ellipse cx="118" cy="288" rx="24" ry="16" fill="#FFC9C9"/>
      <ellipse cx="282" cy="288" rx="24" ry="16" fill="#FFC9C9"/>
    </g>
  </g>
</svg>
